<svg width="49" height="49" viewBox="0 0 49 49" fill="none" xmlns="http://www.w3.org/2000/svg">
<path fill-rule="evenodd" clip-rule="evenodd" d="M12.1224 42.3447C12.0591 45.7511 9.36989 48.4924 6.06177 48.4924C2.71394 48.4924 0 45.6849 0 42.2218C0 39.6513 1.49514 37.4421 3.63488 36.4739C1.49514 35.5058 0 33.2965 0 30.7261C0 27.6931 2.08156 25.1631 4.84748 24.5813V24.3307C2.08156 23.7489 0 21.2189 0 18.1859C0 15.4079 1.74639 13.0517 4.16546 12.2283C1.74639 11.4048 0 9.04867 0 6.2706C0 2.80744 2.71394 0 6.06177 0C9.27418 0 11.903 2.58493 12.1103 5.85374H12.1344C12.3418 2.58493 14.9706 0 18.183 0C21.3954 0 24.0242 2.58493 24.2316 5.85374H24.2608C24.4682 2.58493 27.0969 0 30.3093 0C33.5218 0 36.1505 2.58493 36.3579 5.85374H36.382C36.5894 2.58493 39.2182 0 42.4306 0C45.7784 0 48.4924 2.80744 48.4924 6.2706C48.4924 9.04867 46.746 11.4048 44.3269 12.2283C46.746 13.0517 48.4924 15.4079 48.4924 18.1859C48.4924 21.6218 45.8211 24.4122 42.5097 24.456C45.8211 24.4998 48.4924 27.2902 48.4924 30.7261C48.4924 33.2965 46.9972 35.5058 44.8575 36.4739C46.9972 37.4421 48.4924 39.6513 48.4924 42.2218C48.4924 45.6849 45.7784 48.4924 42.4306 48.4924C39.1225 48.4924 36.4235 45.6297 36.3602 42.2232C36.2969 45.6297 33.6175 48.4924 30.3093 48.4924C26.962 48.4924 25.1149 45.6842 25.1141 42.2218L24.2448 42.2232C24.244 45.6857 21.5304 48.4924 18.183 48.4924C14.8749 48.4924 12.1857 45.7511 12.1224 42.3447ZM35.7601 12.3323H12.7254V36.1606H35.7601V12.3323Z" fill="black"/>
</svg>
